1.8Hz3min_grf.mot
version=1
nRows=27
nColumns 19
inDegrees=yes
endheader
time	1_ground_force_vx	1_ground_force_vy	1_ground_force_vz	1_ground_force_px	1_ground_force_py	1_ground_force_pz	1_ground_torque_x	1_ground_torque_y	1_ground_torque_z	2_ground_force_vx	2_ground_force_vy	2_ground_force_vz	2_ground_force_px	2_ground_force_py	2_ground_force_pz	2_ground_torque_x	2_ground_torque_y	2_ground_torque_z
            3.751500	          -18.671425	         1090.872630	         -142.064969	           -0.241652	            0.006122	           -0.382174	           -0.191951	           11.214670	           -1.460493	           18.451777	         1232.617020	          202.567992	           -0.251958	            0.005672	           -0.725111	           -0.211427	          -14.123776	           -2.321098
            3.752000	          -18.668333	         1090.146578	         -140.875784	           -0.241580	            0.006122	           -0.382023	           -0.192220	           11.224785	           -1.450539	           18.320325	         1230.040094	          202.089588	           -0.251822	            0.005672	           -0.724915	           -0.211490	          -14.199570	           -2.332920
            3.752500	          -18.619948	         1088.700529	         -139.964978	           -0.241508	            0.006122	           -0.382088	           -0.194596	           11.377929	           -1.462764	           17.951781	         1228.200392	          201.191550	           -0.251743	            0.005672	           -0.724872	           -0.208278	          -14.249660	           -2.334237
            3.753000	          -18.710802	         1087.257403	         -139.741659	           -0.241417	            0.006122	           -0.382096	           -0.198526	           11.536074	           -1.482694	           17.674279	         1227.097591	          200.296070	           -0.251631	            0.005673	           -0.724987	           -0.206652	          -14.347492	           -2.341905
            3.753500	          -18.709772	         1084.732517	         -139.523205	           -0.241407	            0.006123	           -0.382298	           -0.200609	           11.630675	           -1.495990	           17.539301	         1225.443226	          199.351655	           -0.251584	            0.005673	           -0.724962	           -0.205694	          -14.371531	           -2.337920
            3.754000	          -18.478785	         1084.369264	         -138.837462	           -0.241347	            0.006122	           -0.382070	           -0.199158	           11.686931	           -1.496339	           17.172814	         1223.050538	          198.592422	           -0.251451	            0.005673	           -0.724808	           -0.202291	          -14.407230	           -2.339369
            3.754500	          -18.614470	         1082.383546	         -138.249501	           -0.241249	            0.006122	           -0.382194	           -0.200961	           11.685394	           -1.492539	           16.898655	         1221.026927	          197.740624	           -0.251393	            0.005673	           -0.724749	           -0.199653	          -14.426066	           -2.336246
            3.755000	          -18.980366	         1081.481180	         -137.977311	           -0.241215	            0.006122	           -0.382066	           -0.203208	           11.578587	           -1.477217	           16.487248	         1218.082089	          196.838663	           -0.251299	            0.005673	           -0.724714	           -0.195838	          -14.468526	           -2.338073
            3.755500	          -19.252720	         1079.133711	         -137.069574	           -0.241052	            0.006122	           -0.382153	           -0.207358	           11.622615	           -1.476283	           16.448689	         1215.690997	          196.032357	           -0.251152	            0.005673	           -0.724669	           -0.196016	          -14.487187	           -2.336085
            3.756000	          -19.389044	         1077.509568	         -136.709343	           -0.240951	            0.006122	           -0.381986	           -0.211240	           11.739240	           -1.489420	           16.083531	         1212.929906	          195.271810	           -0.251077	            0.005673	           -0.724528	           -0.193350	          -14.581397	           -2.347486
            3.756500	          -19.661867	         1074.622315	         -136.033201	           -0.240848	            0.006122	           -0.382113	           -0.217125	           11.867019	           -1.502210	           15.902489	         1211.090288	          194.608311	           -0.250946	            0.005674	           -0.724578	           -0.192183	          -14.636162	           -2.351863
            3.757000	          -19.706451	         1072.097271	         -135.722897	           -0.240789	            0.006122	           -0.382086	           -0.219366	           11.934246	           -1.510824	           15.393538	         1209.248907	          194.038822	           -0.250814	            0.005674	           -0.724531	           -0.185520	          -14.573677	           -2.338525
            3.757500	          -19.751056	         1070.292972	         -135.363666	           -0.240702	            0.006122	           -0.382076	           -0.219853	           11.913672	           -1.506763	           14.891943	         1205.381582	          193.555977	           -0.250773	            0.005674	           -0.724426	           -0.180578	          -14.616321	           -2.347038
            3.758000	          -20.024580	         1068.127887	         -134.913707	           -0.240564	            0.006121	           -0.381947	           -0.221626	           11.821695	           -1.493181	           14.522234	         1203.908944	          193.034679	           -0.250594	            0.005675	           -0.724585	           -0.176398	          -14.623591	           -2.344746
            3.758500	          -20.481899	         1065.783134	         -134.647475	           -0.240500	            0.006122	           -0.382097	           -0.225977	           11.758818	           -1.485570	           14.202012	         1201.699836	          192.463796	           -0.250435	            0.005676	           -0.724617	           -0.173483	          -14.679206	           -2.351016
            3.759000	          -20.801786	         1063.979175	         -134.379265	           -0.240341	            0.006121	           -0.381882	           -0.231064	           11.818559	           -1.492669	           14.116082	         1199.491483	          191.986655	           -0.250240	            0.005676	           -0.724650	           -0.172204	          -14.632765	           -2.342072
            3.759500	          -21.166898	         1061.273305	         -133.931397	           -0.240236	            0.006122	           -0.382000	           -0.238078	           11.936814	           -1.506411	           13.658614	         1196.361392	          191.365611	           -0.250127	            0.005677	           -0.724596	           -0.167415	          -14.663891	           -2.345583
            3.760000	          -21.302976	         1058.928025	         -133.528421	           -0.239967	            0.006122	           -0.381948	           -0.241237	           11.991381	           -1.512086	           13.157663	         1192.310155	          190.835174	           -0.250115	            0.005676	           -0.724520	           -0.161195	          -14.606996	           -2.337922
            3.760500	          -21.898065	         1056.043069	         -133.401737	           -0.239989	            0.006121	           -0.381816	           -0.248530	           11.985471	           -1.514032	           12.888259	         1188.996662	          190.213393	           -0.249946	            0.005677	           -0.724545	           -0.158153	          -14.590297	           -2.334128
            3.761000	          -22.217369	         1053.517139	         -132.953181	           -0.239786	            0.006121	           -0.381854	           -0.250057	           11.857375	           -1.496393	           12.145828	         1186.969518	          189.877995	           -0.249726	            0.005678	           -0.724541	           -0.148952	          -14.556575	           -2.328597
            3.761500	          -22.491460	         1050.091479	         -132.829644	           -0.239735	            0.006121	           -0.381871	           -0.252252	           11.777260	           -1.489746	           12.110795	         1183.655866	          189.537699	           -0.249725	            0.005678	           -0.724584	           -0.149010	          -14.563580	           -2.332052
            3.762000	          -22.949234	         1047.747513	         -132.746820	           -0.239485	            0.006121	           -0.381851	           -0.256744	           11.721665	           -1.485104	           11.559210	         1180.707508	          189.480489	           -0.249517	            0.005679	           -0.724577	           -0.141965	          -14.500873	           -2.327107
            3.762500	          -23.269462	         1045.944387	         -132.616181	           -0.239463	            0.006120	           -0.381675	           -0.262342	           11.792064	           -1.495126	           11.427780	         1178.130415	          189.048990	           -0.249339	            0.005680	           -0.724671	           -0.140104	          -14.443837	           -2.317734
            3.763000	          -23.726339	         1041.796720	         -132.311841	           -0.239211	            0.006121	           -0.381867	           -0.269252	           11.822559	           -1.501506	           10.921612	         1175.551467	          188.758457	           -0.249216	            0.005680	           -0.724699	           -0.134113	          -14.435346	           -2.317885
            3.763500	          -24.458359	         1039.991895	         -131.859199	           -0.239214	            0.006120	           -0.381553	           -0.278587	           11.845760	           -1.501908	           10.935467	         1171.685166	          188.510010	           -0.249114	            0.005681	           -0.724676	           -0.134253	          -14.384571	           -2.314304
            3.764000	          -24.686594	         1037.106813	         -131.687559	           -0.238956	            0.006119	           -0.381429	           -0.280269	           11.774348	           -1.495058	           10.012281	         1167.816061	          188.168122	           -0.248992	            0.005681	           -0.724611	           -0.123111	          -14.359464	           -2.313715
            3.764500	          -25.328031	         1033.862484	         -131.791613	           -0.238736	            0.006120	           -0.381436	           -0.285738	           11.663512	           -1.486806	            9.601205	         1164.868545	          188.017011	           -0.248885	            0.005681	           -0.724685	           -0.117397	          -14.243188	           -2.298939
